<svg xmlns="http://www.w3.org/2000/svg" xmlns:xlink="http://www.w3.org/1999/xlink" width="100" zoomAndPan="magnify" viewBox="0 0 75 74.999997" height="100" preserveAspectRatio="xMidYMid meet" version="1.0"><defs><g/></defs><rect x="-7.5" width="90" fill="#ffffff" y="-7.5" height="89.999996" fill-opacity="1"/><rect x="-7.5" width="90" fill="#000000" y="-7.5" height="89.999996" fill-opacity="1"/><g fill="#ffffff" fill-opacity="1"><g transform="translate(0.10547, 59.999995)"><g><path d="M 19.078125 -45.5 C 22.984375 -45.5 26.128906 -44.425781 28.515625 -42.28125 C 30.898438 -40.144531 32.320312 -37.164062 32.78125 -33.34375 L 27.171875 -33.34375 C 26.921875 -35.59375 26.078125 -37.347656 24.640625 -38.609375 C 23.210938 -39.878906 21.359375 -40.515625 19.078125 -40.515625 C 16.578125 -40.515625 14.597656 -39.765625 13.140625 -38.265625 C 11.691406 -36.773438 10.96875 -34.71875 10.96875 -32.09375 L 10.96875 -12.78125 C 10.96875 -10.15625 11.679688 -8.09375 13.109375 -6.59375 C 14.546875 -5.101562 16.535156 -4.359375 19.078125 -4.359375 C 21.359375 -4.359375 23.210938 -4.992188 24.640625 -6.265625 C 26.078125 -7.535156 26.921875 -9.289062 27.171875 -11.53125 L 32.78125 -11.53125 C 32.320312 -7.707031 30.898438 -4.722656 28.515625 -2.578125 C 26.128906 -0.441406 22.984375 0.625 19.078125 0.625 C 16.953125 0.625 15.046875 0.3125 13.359375 -0.3125 C 11.679688 -0.9375 10.25 -1.828125 9.0625 -2.984375 C 7.882812 -4.148438 6.972656 -5.5625 6.328125 -7.21875 C 5.679688 -8.882812 5.359375 -10.738281 5.359375 -12.78125 L 5.359375 -32.09375 C 5.359375 -34.132812 5.679688 -35.984375 6.328125 -37.640625 C 6.972656 -39.304688 7.882812 -40.71875 9.0625 -41.875 C 10.25 -43.039062 11.679688 -43.9375 13.359375 -44.5625 C 15.046875 -45.1875 16.953125 -45.5 19.078125 -45.5 Z M 19.078125 -45.5 "/></g></g></g><g fill="#00ff99" fill-opacity="1"><g transform="translate(37.499998, 59.999995)"><g><path d="M 3.859375 -34.28125 L 8.296875 -34.28125 L 8.296875 -29.234375 L 8.71875 -29.234375 C 8.882812 -31.054688 9.46875 -32.457031 10.46875 -33.4375 C 11.46875 -34.414062 12.796875 -34.90625 14.453125 -34.90625 C 16.117188 -34.90625 17.488281 -34.414062 18.5625 -33.4375 C 19.644531 -32.457031 20.394531 -31.054688 20.8125 -29.234375 L 21.125 -29.234375 C 21.289062 -31.054688 21.875 -32.457031 22.875 -33.4375 C 23.875 -34.414062 25.203125 -34.90625 26.859375 -34.90625 C 28.984375 -34.90625 30.625 -34.125 31.78125 -32.5625 C 32.945312 -31.007812 33.53125 -28.859375 33.53125 -26.109375 L 33.53125 0 L 28.671875 0 L 28.671875 -26.109375 C 28.671875 -27.566406 28.347656 -28.679688 27.703125 -29.453125 C 27.054688 -30.222656 26.132812 -30.609375 24.9375 -30.609375 C 22.394531 -30.609375 21.125 -29.003906 21.125 -25.796875 L 21.125 0 L 16.265625 0 L 16.265625 -26.109375 C 16.265625 -27.316406 15.984375 -28.367188 15.421875 -29.265625 C 14.859375 -30.160156 13.894531 -30.609375 12.53125 -30.609375 C 11.28125 -30.609375 10.300781 -30.148438 9.59375 -29.234375 C 9.007812 -28.398438 8.71875 -27.253906 8.71875 -25.796875 L 8.71875 0 L 3.859375 0 Z M 3.859375 -34.28125 "/></g></g></g></svg>